<?xml version="1.0" encoding="UTF-8" standalone="no"?>
<!-- Created with Inkscape (http://www.inkscape.org/) -->

<svg
   version="1.1"
   id="svg1"
   width="1928.9873"
   height="545.88654"
   viewBox="0 0 1928.9873 545.88654"
   xmlns="http://www.w3.org/2000/svg"
   xmlns:svg="http://www.w3.org/2000/svg">
  <defs
     id="defs1" />
  <g
     id="g1"
     transform="translate(-801,-678.99994)">
    <rect
       style="fill:#1f1f1f;fill-opacity:1;stroke-width:162.137;stroke-linecap:round;stroke-dashoffset:8.3318;paint-order:stroke fill markers"
       id="rect71-1-7"
       width="1928.9873"
       height="545.88641"
       x="801"
       y="679" />
    <path
       id="rect72-5"
       style="fill:#e3e3e3;fill-opacity:1;stroke-width:223.943;stroke-linecap:round;stroke-dashoffset:8.3318;paint-order:stroke fill markers"
       d="m 801,678.99996 608.6188,4e-5 -83.9476,545.8864 H 801 Z" />
    <path
       style="fill:#aa0000;fill-opacity:1"
       d="m 962.12902,772.2284 -0.0757,-9.97699 94.44288,0.0547 v 9.94661 z"
       id="path20-0-8" />
    <path
       style="fill:#000000"
       d="m 1312.366,779.95359 c 0.7218,-0.28887 1.5843,-0.25335 1.9166,0.0789 0.3323,0.33229 -0.2583,0.56864 -1.3125,0.52522 -1.1649,-0.048 -1.4019,-0.28494 -0.6041,-0.60416 z"
       id="path19-7-7" />
    <path
       style="fill:#aa0000;fill-opacity:1"
       d="m 1167.9244,1089.6914 c -7.5378,-3.5468 -11.5413,-9.7089 -13.7114,-17.2726 -4.6945,-16.4514 1.7342,-23.3207 7.919,-28.0271 4.6663,-3.5508 20.9581,-9.0493 32.6487,3.3419 4.6725,4.9526 7.7728,12.0047 7.7728,17.6807 0,12.8909 -6.3528,19.0827 -7.986,20.3082 -4.2697,3.2035 -20.5346,6.7038 -26.6431,3.9689 z"
       id="path12-6-5" />
    <path
       style="fill:#aa0000;fill-opacity:1;stroke-width:203.206;stroke-linecap:round;stroke-dashoffset:8.3318;paint-order:stroke fill markers"
       d="m 1241.0478,776.67444 v 44.76664 l -99.7384,-3.4e-4 v -44.7663 z"
       id="path71-0-1" />
    <g
       id="g71-4-7"
       style="fill:#1f1f1f;fill-opacity:1"
       transform="translate(53.383548,656.37255)">
      <path
         style="fill:#1f1f1f;fill-opacity:1"
         d="m 950.56448,161.01825 c -5.24201,-1.04012 -11.88293,-6.67347 -13.44432,-11.40453 -1.3032,-3.94874 -0.64633,-13.12561 1.19571,-16.70473 3.39729,-6.60101 9.12853,-9.64484 18.16034,-9.64484 7.57116,0 13.27894,2.61971 16.6936,7.66189 2.0523,3.03049 2.49375,4.86871 2.46509,10.26484 -0.0455,8.55822 -1.82509,13.48333 -6.03127,16.69155 -3.93214,2.99918 -12.56327,4.42077 -19.03915,3.13582 z"
         id="path18-8-5" />
      <path
         style="fill:#1f1f1f;fill-opacity:1"
         d="m 914.94458,150.01415 c -0.26076,-15.42137 -0.16004,-16.42284 1.97523,-19.63955 3.13163,-5.3605 6.7182,-6.60804 7.96226,-6.60846 l 5.78774,-0.002 0.0201,42.5 h -8.07488 -7.39564 z"
         id="path17-2-0" />
      <path
         style="fill:#1f1f1f;fill-opacity:1"
         d="m 928.79143,171.25556 275.28847,0.0214 -0.185,42.99202 -275.10347,-0.11369 z m 89.60297,14.31727 v -2.57893 h -62.47787 v 2.57893 z"
         id="path15-8-6" />
      <path
         style="fill:#1f1f1f;fill-opacity:1"
         d="m 837.58491,214.4609 v -43.20534 h 85.5849 v 43.20534 z"
         id="path14-2-7" />
      <path
         style="fill:#1f1f1f;fill-opacity:1"
         d="m 998.40625,218.47461 c -16.27052,0.34465 -20.50101,2.12905 -29.35742,7.99219 -11.7276,7.7639 -26.45898,24.15185 -32.62891,36.29687 -2.69522,5.30534 -9.30733,22.9672 -10.48242,28 -3.24243,13.88706 -2.05227,34.80652 2.75977,48.5 2.77047,7.88389 6.47464,15.13697 10.86328,21.83594 9.55446,14.58425 22.699,26.26379 38.95507,34.14453 11.69158,5.66792 19.77938,7.75622 33.54298,8.6582 22.574,1.47936 48.4011,-6.78447 61.6426,-19.72265 2.7672,-2.70393 4.057,-3.06505 5.7812,-4.91602 8.896,-9.55024 17.1845,-19.9086 23.1875,-31.55078 2.8237,-5.47629 5.1443,-8.96976 5.3321,-8.02539 0.1829,0.91972 -0.1137,2.21392 -0.6602,2.875 -0.5465,0.66108 -3.0481,5.27683 -5.5586,10.25781 -4.8586,9.63983 -17.0919,25.20683 -24.8203,31.58399 -9.9337,8.1968 -24.0014,15.68094 -37.0488,19.71093 -12.9061,3.98629 -34.5136,3.78799 -46.01566,-0.42382 -2.32545,-0.85154 -6.91834,-2.21509 -10.20508,-3.0293 -11.92718,-2.95465 -28.69988,-14.29294 -39.61914,-26.78125 -4.19367,-4.79628 -7.6604,-9.91406 -10.74805,-15.17578 -5.07518,-8.64874 -8.81387,-17.80532 -10.76367,-27.44141 -4.30014,-21.25153 -2.33422,-40.29313 6.125,-59.36133 6.35446,-14.32382 10.03081,-20.04537 18.81445,-29.2832 9.15059,-9.62376 16.12913,-15.25055 24.77344,-19.83398 l 6.81641,-3.61524 H 837.58398 l 0.0352,102.75196 0.0508,143.84179 93.29297,-0.10351 v 17.91601 h 163.98835 v -88.06836 c 2.5638,-2.84026 14.8716,-16.31902 18.5644,-25.42383 6.333,-13.96442 10.7265,-27.02009 13.668,-40.61914 1.9349,-8.94563 2.1601,-12.29684 1.7226,-25.5 -0.3699,-11.1658 -1.0923,-17.45747 -2.7207,-23.70117 -3.6406,-13.95944 -15.3788,-35.29012 -25.1425,-45.68945 -2.6801,-2.85458 -4.8731,-5.53358 -4.8731,-5.95313 0,-1.19851 7.6654,6.59095 12.2989,12.49805 2.3102,2.94548 5.8692,7.41366 7.9082,9.92969 3.8212,4.71543 10.1894,20.5065 13.3945,33.21484 2.3431,9.29186 2.3701,32.70615 0.051,44.37695 -2.2432,11.28602 -6.4753,24.36415 -10.5293,32.53516 -0.7031,1.42573 -2.0664,5.70508 -2.0664,5.70508 h 63.9882 v -28.85742 h -36.0429 v -91.78321 h 53.498 v 222.02344 h 2.5352 c 1.7064,-2e-5 2.5725,-0.57232 2.6465,-1.75 0.33,-5.25638 -0.1211,-247.34375 -0.1211,-247.34375 h -142.7149 c -0.709,0 2.8721,2.90674 7.8223,6.0918 4.8993,3.1523 10.0956,7.03031 11.5488,8.61719 7.9139,8.64188 12.8016,15.30524 17.0332,23.22461 4.2764,8.00316 4.8567,9.90941 6.1582,20.24804 2.2796,18.10767 2.8424,31.71884 1.625,39.26953 -1.1235,6.96857 -5.5532,20.90605 -8.332,26.21875 -8.5086,16.26804 -26.1867,33.22566 -43.2012,41.43946 -18.0616,8.71934 -36.4404,11.37315 -51.8691,7.48828 -9.23192,-2.32456 -23.50659,-9.13063 -32.46295,-15.47656 -5.57877,-3.77794 -10.35937,-9.10167 -14.67773,-13.58204 -3.88363,-4.02931 -7.13137,-8.94684 -10.64258,-16.06445 -2.78164,-5.63865 -4.88958,-10.75316 -4.68555,-11.36523 0.20402,-0.61208 2.98322,4.29772 6.17774,10.91015 4.65832,9.64248 7.68319,13.19822 11.35937,17.23828 3.2473,3.56876 2.7855,3.06387 4.32227,4.44532 2.44724,2.19991 3.95897,3.54851 7.76757,6.09179 7.94572,5.30595 21.38608,11.75953 28.71094,13.78711 3.30002,0.91347 11.62502,1.90747 18.50002,2.20899 15.7343,0.69005 21.2226,-0.57258 37.6328,-8.66406 13.6906,-6.75042 22.2755,-11.5072 30.75,-23.74805 2.9402,-4.24703 8.8215,-9.81753 10.4922,-14.53516 0.5333,-1.7875 2.3277,-7.14063 3.9863,-11.89648 5.1983,-14.90453 5.7061,-29.96058 1.6934,-50.19141 -0.8551,-4.31085 -1.5547,-9.29325 -1.5547,-11.07226 0,-4.91958 -8.0846,-20.54902 -14.0879,-27.23633 -7.11,-7.92005 -20.7154,-17.64406 -30.1699,-21.56055 -4.9044,-2.03162 -7.1935,-2.1948 -35.6035,-2.54492 -8.7167,-0.10743 -15.4788,-0.15201 -20.90239,-0.0371 z m 19.31055,15 c 2.7207,0.0182 5.5334,0.23929 8.5625,0.64258 12.5231,1.66734 23.1193,5.27547 32.9453,11.21875 10.0505,6.079 11.5528,7.38477 18.6289,16.19922 7.303,9.09712 11.8616,19.10684 13.7676,30.22851 1.9221,11.21622 1.925,16.24531 0.016,24.5 -4.414,19.0739 -15.8445,37.72026 -28.3262,46.21094 -2.5529,1.73666 -4.8656,3.43455 -5.1406,3.77344 -1.7096,2.10672 -12.1172,7.30865 -20.1191,10.05664 -7.7935,2.67641 -11.1584,3.2724 -19.8809,3.51953 -11.3033,0.32025 -12.399,0.21043 -21.49998,-2.18164 -19.20026,-5.04654 -35.62753,-18.56831 -44.80469,-36.87891 -5.12089,-10.21745 -6.57408,-15.3349 -7.30468,-25.72851 -1.32751,-18.88523 3.52208,-34.03857 16.48633,-51.52344 8.22659,-11.09519 18.12814,-18.75635 31.32812,-24.23828 9.8479,-4.08985 17.1798,-5.85341 25.3418,-5.79883 z m 45.3457,24.74217 c -1.0005,-1.34769 -4.3707,-4.64426 -7.7693,-7.10557 -2.8342,-2.05259 -5.8024,-3.39105 -6.3616,-3.78311 -7.4229,-5.20455 -22.2975,-6.713 -26.2851,-6.98437 v 2e-5 c -9.2872,-0.43137 -18.3419,1.15864 -24.91603,4.87305 -2.1665,1.22408 -6.2165,3.12062 -9,4.21484 -5.41094,2.1271 -13.59046,7.95719 -19.80859,14.11719 -5.47238,5.4212 -10.04078,13.01415 -13.36329,22.21484 -2.68719,7.44146 -2.88867,9.01872 -2.88867,22.57813 0,0 0.25014,9.62576 1.23744,14.311 0.63108,2.99484 2.96764,8.689 2.96764,8.689 9.85429,19.74004 24.55679,32.97356 42.29492,38.07031 11.69468,3.36026 20.73988,3.60507 31.51368,0.84961 8.9994,-2.30167 11.7263,-3.76632 23.6523,-12.68945 5.4142,-4.05097 10.1578,-8.60963 12.6387,-12.14649 6.0764,-8.66257 11.11,-21.09469 12.2912,-27.68409 0.9562,-5.33438 -0.7258,-19.96386 -3.0119,-24.41747 -1.8181,-3.54205 -3.9767,-8.71705 -4.7988,-11.5 -1.0182,-3.44668 -3.0566,-6.71462 -6.3906,-10.25 -2.6922,-2.85458 -3.0323,-4.23006 -4.8946,-6.02734 -2.1035,-2.03005 -2.7692,-1.05251 -7,-5.28321 -1.1,-1.1 -2,-1.76669 -2,-1.48242 0,0.28426 -2.3176,-0.65826 -5.1504,-2.09375 -11.0745,-5.61184 -19.7934,-6.67836 -32.5351,-3.98047 -6.856,1.45167 -19.63934,6.29538 -24.30471,9.20899 l -2.50977,1.56836 2.5,-2.46094 c 1.375,-1.35357 3.9726,-4.10453 5.77344,-6.11133 1.80084,-2.00681 3.74143,-3.64844 4.31055,-3.64844 0.56916,0 0.81519,-0.35221 0.54882,-0.7832 -0.71834,-1.16235 4.74757,-0.88505 5.58207,0.2832 0.3928,0.55 1.2241,-0.4625 1.8476,-2.25 1.2647,-3.62591 2.3859,-4.11992 3.4043,-1.5 0.5953,1.53128 1.0036,1.37506 3.2754,-1.25 2.4725,-2.85698 2.966,-2.99876 10.3477,-2.97656 6.0181,0.0181 8.1926,0.42244 9.7265,1.81055 1.252,1.13306 2.1133,1.37869 2.3496,0.66992 0.2137,-0.64123 1.147,-0.82117 2.1875,-0.42188 1.4295,0.54855 1.5311,0.87965 0.4805,1.55664 -0.8029,0.51728 -0.04,0.61167 1.916,0.23633 2.1879,-0.4198 3.25,-0.23847 3.25,0.5586 0,0.65115 0.3704,0.95704 0.8223,0.67773 0.9243,-0.57129 3.2362,0.51447 4.2168,1.16992 0.125,0.0835 0.027,0.55542 -0.1555,0.88762 -0.1143,0.2076 -0.3126,0.18165 -0.3322,0.37152 0,0.0256 0.082,0.10011 0.2092,0.0934 0.4473,-0.0237 1.4964,-0.25235 1.9952,-0.0685 0.6988,0.25758 1.6,0.32038 2.0541,0.79545 0.2678,0.28019 0.099,1.01004 0.3941,1.18978 m -39.6454,-9.05052 c 0.2426,0 0.4414,0.45 0.4414,1 0,0.55 -0.4762,1 -1.0586,1 -0.5825,0 -0.7813,-0.45 -0.4414,-1 0.3399,-0.55 0.8161,-1 1.0586,-1 z m 8.3496,0 c -0.4653,0 -0.5861,0.675 -0.2695,1.5 0.3166,0.825 1.2563,1.5 2.0898,1.5 1.2337,0 1.2849,-0.27889 0.2715,-1.5 -0.6847,-0.825 -1.6264,-1.5 -2.0918,-1.5 z m 5.0332,1 c -0.5825,0 -0.7813,0.45 -0.4414,1 0.3399,0.55 0.8161,1 1.0586,1 0.2426,0 0.4414,-0.45 0.4414,-1 0,-0.55 -0.4762,-1 -1.0586,-1 z m -8.7148,0.43555 c -0.2826,0.0799 -0.5441,0.26934 -0.7168,0.54883 -0.3455,0.55897 0.074,1.01562 0.9316,1.01562 1.7565,0 2.014,-0.5998 0.627,-1.45703 -0.256,-0.15822 -0.5592,-0.18735 -0.8418,-0.10742 z m 13.2734,0.56445 c -0.8899,0 -1.3399,0.45 -1,1 0.3399,0.55 0.7899,1 1,1 0.2101,0 0.6601,-0.45 1,-1 0.3399,-0.55 -0.1101,-1 -1,-1 z m -189.28513,0.97656 h 68.71484 v 13.31446 c -0.14026,10.61385 -0.63147,15.47413 -1.94531,19.20898 -7.15144,20.32945 -7.10941,46.63411 0.11328,70.20899 0.0704,0.22902 0.0996,0.32539 0.16797,0.54882 5.09486,16.65285 4.78077,18.08008 14.71484,29.72461 1.81528,1.77448 3.55664,4.4336 3.55664,4.4336 0,0 -0.52607,0.0254 -1.42969,0.0254 h -83.89257 v -59.95117 z m 181.78513,8.69727 c 6.6086,-0.0161 8.402,0.41793 15.0879,3.64648 9.1376,4.41256 21.8186,14.95669 25.461,21.17188 6.8585,11.70364 9.7122,27.37333 7.0566,38.75391 -5.5626,23.83849 -21.393,38.42261 -45.8457,42.23632 -5.3566,0.83543 -10.0816,1.46359 -10.5,1.39649 -0.4185,-0.0671 -3.3979,-0.50752 -6.6231,-0.97852 -3.2253,-0.47099 -7.7252,-1.91574 -9.99996,-3.21094 -2.27473,-1.29518 -5.91988,-3.37682 -8.09961,-4.625 -18.65651,-10.68323 -29.90788,-34.57278 -25.22265,-53.55859 2.71604,-11.00624 6.35955,-17.17524 15.68554,-26.55859 12.76548,-12.844 25.44258,-18.23074 42.99998,-18.27344 z m -3.1621,7.57227 c -2.1833,0.061 -4.544,0.28833 -7.2051,0.66211 -13.712,1.9261 -24.98949,9.18162 -33.57809,21.60546 -4.64241,6.71548 -5.62766,9.01055 -7.25586,16.87891 -2.31495,11.18707 -1.76405,16.60627 2.6543,26.10742 5.67603,12.20572 16.91201,22.00848 29.87105,26.06055 5.9112,1.84832 19.2376,1.75979 25.7422,-0.17188 15.9208,-4.72793 26.5151,-13.65351 31.586,-26.61132 2.487,-6.3552 2.8476,-8.60606 2.8476,-17.77735 0,-9.1684 -0.365,-11.45112 -2.8808,-18 -3.7733,-9.82219 -12.5816,-18.89771 -23.6309,-24.34961 -6.6503,-3.28138 -11.6004,-4.58733 -18.1504,-4.40429 z m -1.8633,36.06835 c 4.8933,-2.4e-4 8.8605,3.96605 8.8614,8.85938 -0.035,0.73035 -0.6061,8.84945 -8.8614,8.86133 -4.8933,-9e-4 -8.8595,-3.96805 -8.8593,-8.86133 9e-4,-4.89251 3.9668,-8.85848 8.8593,-8.85938 z m -86.43356,91.85938 c 0.93253,0.26816 3.43975,2.41231 8.2539,6.9082 30.0376,26.44601 69.76406,34.46431 109.11326,23.91407 12.5023,-3.86885 24.5382,-12.26561 35.3555,-19.26954 v 61.17774 l -152.15821,-0.01 -0.041,-34.34179 c -0.0228,-19.42749 -0.31745,-36.04949 -0.65821,-36.9375 -0.41706,-1.08685 -0.42475,-1.6023 0.13477,-1.44141 z"
         id="path67-7-5" />
      <rect
         style="fill:#1f1f1f;fill-opacity:1;stroke-width:203.206;stroke-linecap:round;stroke-dashoffset:8.3318;paint-order:stroke fill markers"
         id="rect6-0-4"
         width="44.817188"
         height="32.091518"
         x="867.4306"
         y="136.22658" />
      <path
         style="fill:#1f1f1f;fill-opacity:1;stroke-width:203.206;stroke-linecap:round;stroke-dashoffset:8.3318;paint-order:stroke fill markers"
         d="m 1079.4986,165.06853 h -90.94745 v -44.76664 h 90.94745 z"
         id="rect23-9-6" />
    </g>
    <g
       id="text68-7-6"
       style="font-weight:bold;font-size:192px;line-height:0;font-family:'Open Sans';-inkscape-font-specification:'Open Sans Bold';font-variant-ligatures:discretionary-ligatures no-contextual;text-align:end;text-anchor:end;fill:#1f1f1f;stroke-width:203.206;stroke-linecap:round;stroke-dashoffset:8.3318;paint-order:stroke fill markers"
       aria-label="sportfoto.tirol&#10;                               ">
      <path
         style="font-size:186.667px;fill:#aa0000"
         d="m 1546.0602,920.61746 q 0,10.39064 -4.9219,17.59118 -4.8308,7.10938 -14.4922,10.84637 -9.6615,3.64584 -24.0626,3.64584 -10.6641,0 -18.3203,-1.36719 -7.5652,-1.36719 -15.3126,-4.5573 v -22.96879 q 8.2943,3.73698 17.7735,6.19793 9.5703,2.36979 16.7709,2.36979 8.112,0 11.5755,-2.36979 3.5547,-2.46095 3.5547,-6.38022 0,-2.55209 -1.4583,-4.5573 -1.3672,-2.09636 -6.0157,-4.64845 -4.6484,-2.64323 -14.5833,-6.83595 -9.5704,-4.01042 -15.7683,-8.11199 -6.1068,-4.10157 -9.1146,-9.66148 -2.9167,-5.65105 -2.9167,-14.30992 0,-14.12763 10.9376,-21.23702 11.0286,-7.20053 29.4401,-7.20053 9.4792,0 18.0469,1.91406 8.6589,1.91407 17.7735,6.10678 l -8.3854,20.05212 q -7.5651,-3.28125 -14.31,-5.37761 -6.6536,-2.09636 -13.5807,-2.09636 -6.1068,0 -9.2058,1.64063 -3.0989,1.64063 -3.0989,5.01303 0,2.46094 1.5495,4.37501 1.6406,1.91406 6.1979,4.28386 4.6484,2.27865 13.5807,5.92449 8.6589,3.55469 15.0391,7.47397 6.3803,3.82813 9.8438,9.57033 3.4636,5.65105 3.4636,14.67451 z m 78.3855,-73.55482 q 17.2266,0 27.7995,13.39846 10.6641,13.39846 10.6641,39.28392 0,17.31774 -5.013,29.16672 -5.013,11.75784 -13.8542,17.77347 -8.8412,6.01564 -20.3256,6.01564 -7.3828,0 -12.6692,-1.82292 -5.2865,-1.91407 -9.0235,-4.83074 -3.737,-3.00782 -6.4714,-6.38022 h -1.4583 q 0.7292,3.64584 1.0938,7.47397 0.3645,3.82814 0.3645,7.47398 v 41.10684 h -27.7995 V 848.9767 h 22.6042 l 3.9193,13.21617 h 1.276 q 2.7344,-4.10157 6.6537,-7.56512 3.9193,-3.46354 9.388,-5.46876 5.5599,-2.09635 12.8516,-2.09635 z m -8.9323,22.23962 q -7.2917,0 -11.5755,3.00782 -4.2839,3.00782 -6.2891,9.02345 -1.9141,6.01564 -2.0964,15.22138 v 3.00782 q 0,9.84377 1.823,16.67972 1.914,6.83595 6.289,10.39064 4.4662,3.5547 12.2136,3.5547 6.3802,0 10.4818,-3.5547 4.1016,-3.55469 6.1068,-10.39064 2.0963,-6.9271 2.0963,-16.86201 0,-14.94794 -4.6484,-22.51306 -4.6485,-7.56512 -14.4011,-7.56512 z m 162.969,30.44276 q 0,12.76044 -3.4635,22.60421 -3.3724,9.84377 -9.9349,16.67972 -6.4714,6.7448 -15.6771,10.20835 -9.1146,3.46355 -20.599,3.46355 -10.7553,0 -19.7787,-3.46355 -8.9323,-3.46355 -15.586,-10.20835 -6.5625,-6.83595 -10.2083,-16.67972 -3.5547,-9.84377 -3.5547,-22.60421 0,-16.95315 6.0156,-28.71099 6.0157,-11.75783 17.1355,-17.86461 11.1198,-6.10678 26.5235,-6.10678 14.3099,0 25.3385,6.10678 11.1199,6.10678 17.4089,17.86461 6.3802,11.75784 6.3802,28.71099 z m -70.4558,0 q 0,10.02606 2.1875,16.86201 2.1875,6.83595 6.8359,10.2995 4.6485,3.46355 12.1225,3.46355 7.3828,0 11.9401,-3.46355 4.6484,-3.46355 6.7448,-10.2995 2.1875,-6.83595 2.1875,-16.86201 0,-10.1172 -2.1875,-16.77086 -2.0964,-6.7448 -6.7448,-10.11721 -4.6485,-3.3724 -12.1224,-3.3724 -11.0287,0 -16.0417,7.56512 -4.9219,7.56512 -4.9219,22.69535 z m 150.2998,-52.68238 q 2.0963,0 4.8307,0.27343 2.8255,0.1823 4.5573,0.54688 l -2.0964,26.06776 q -1.3671,-0.45573 -3.9192,-0.63803 -2.461,-0.27343 -4.2839,-0.27343 -5.3776,0 -10.4818,1.36719 -5.013,1.36719 -9.0234,4.46615 -4.0105,3.00782 -6.3803,8.02085 -2.2786,4.92188 -2.2786,12.12242 v 51.86207 h -27.7995 V 848.9767 h 21.0547 l 4.1016,17.13545 h 1.3671 q 3.0079,-5.19532 7.474,-9.47918 4.5573,-4.37501 10.2995,-6.9271 5.8334,-2.64323 12.5782,-2.64323 z m 70.8204,83.48973 q 4.5573,0 8.8411,-0.91146 4.375,-0.91146 8.6589,-2.27865 v 20.69014 q -4.4661,2.00522 -11.1198,3.28126 -6.5625,1.36719 -14.4011,1.36719 -9.1146,0 -16.4063,-2.91667 -7.2005,-3.00782 -11.3932,-10.2995 -4.1016,-7.38283 -4.1016,-20.50785 v -49.12769 h -13.3073 V 858.0913 l 15.3125,-9.29689 8.0209,-21.51046 h 17.7735 v 21.69275 h 28.5287 v 20.87244 h -28.5287 v 49.12769 q 0,5.83334 3.2812,8.75002 3.3724,2.82552 8.8412,2.82552 z m 94.4272,-60.70323 h -24.0625 v 81.02879 h -27.7995 v -81.02879 h -15.3126 v -13.39847 l 15.3126,-7.47397 v -7.47397 q 0,-13.03388 4.375,-20.23441 4.4661,-7.29168 12.487,-10.20835 8.112,-3.00782 19.1406,-3.00782 8.112,0 14.7657,1.36719 6.6537,1.27604 10.8464,2.91667 l -7.1094,20.4167 q -3.1901,-1.0026 -6.9271,-1.82292 -3.737,-0.82031 -8.5677,-0.82031 -5.8334,0 -8.5678,3.55469 -2.6432,3.46355 -2.6432,8.93231 v 6.38022 h 24.0625 z m 108.555,29.89588 q 0,12.76044 -3.4636,22.60421 -3.3724,9.84377 -9.9349,16.67972 -6.4714,6.7448 -15.6771,10.20835 -9.1146,3.46355 -20.599,3.46355 -10.7552,0 -19.7787,-3.46355 -8.9323,-3.46355 -15.586,-10.20835 -6.5625,-6.83595 -10.2083,-16.67972 -3.5547,-9.84377 -3.5547,-22.60421 0,-16.95315 6.0156,-28.71099 6.0157,-11.75783 17.1355,-17.86461 11.1198,-6.10678 26.5235,-6.10678 14.3099,0 25.3386,6.10678 11.1198,6.10678 17.4088,17.86461 6.3803,11.75784 6.3803,28.71099 z m -70.4559,0 q 0,10.02606 2.1875,16.86201 2.1875,6.83595 6.836,10.2995 4.6484,3.46355 12.1224,3.46355 7.3828,0 11.9401,-3.46355 4.6484,-3.46355 6.7448,-10.2995 2.1875,-6.83595 2.1875,-16.86201 0,-10.1172 -2.1875,-16.77086 -2.0964,-6.7448 -6.7448,-10.11721 -4.6484,-3.3724 -12.1224,-3.3724 -11.0287,0 -16.0417,7.56512 -4.9219,7.56512 -4.9219,22.69535 z m 136.3544,30.80735 q 4.5573,0 8.8412,-0.91146 4.375,-0.91146 8.6588,-2.27865 v 20.69014 q -4.4661,2.00522 -11.1198,3.28126 -6.5625,1.36719 -14.401,1.36719 -9.1146,0 -16.4063,-2.91667 -7.2006,-3.00782 -11.3933,-10.2995 -4.1015,-7.38283 -4.1015,-20.50785 v -49.12769 h -13.3074 V 858.0913 l 15.3126,-9.29689 8.0208,-21.51046 h 17.7735 v 21.69275 h 28.5287 v 20.87244 h -28.5287 v 49.12769 q 0,5.83334 3.2812,8.75002 3.3725,2.82552 8.8412,2.82552 z m 130.7033,-30.80735 q 0,12.76044 -3.4635,22.60421 -3.3724,9.84377 -9.9349,16.67972 -6.4714,6.7448 -15.6771,10.20835 -9.1146,3.46355 -20.599,3.46355 -10.7553,0 -19.7787,-3.46355 -8.9323,-3.46355 -15.586,-10.20835 -6.5625,-6.83595 -10.2083,-16.67972 -3.5547,-9.84377 -3.5547,-22.60421 0,-16.95315 6.0156,-28.71099 6.0156,-11.75783 17.1354,-17.86461 11.1199,-6.10678 26.5235,-6.10678 14.31,0 25.3386,6.10678 11.1198,6.10678 17.4089,17.86461 6.3802,11.75784 6.3802,28.71099 z m -70.4558,0 q 0,10.02606 2.1875,16.86201 2.1875,6.83595 6.8359,10.2995 4.6485,3.46355 12.1224,3.46355 7.3829,0 11.9402,-3.46355 4.6484,-3.46355 6.7448,-10.2995 2.1875,-6.83595 2.1875,-16.86201 0,-10.1172 -2.1875,-16.77086 -2.0964,-6.7448 -6.7448,-10.11721 -4.6485,-3.3724 -12.1224,-3.3724 -11.0287,0 -16.0417,7.56512 -4.9219,7.56512 -4.9219,22.69535 z"
         id="path1" />
      <path
         style="font-size:154.667px;fill:#e3e3e3"
         d="m 2345.9523,940.07843 q 0,-7.09898 3.8515,-9.96878 3.9271,-2.86979 9.4402,-2.86979 5.362,0 9.2135,2.86979 3.9271,2.8698 3.9271,9.96878 0,6.79689 -3.9271,9.81773 -3.8515,3.02084 -9.2135,3.02084 -5.5131,0 -9.4402,-3.02084 -3.8515,-3.02084 -3.8515,-9.81773 z"
         id="path2" />
      <path
         style="font-size:154.667px;fill:#d9d9d9"
         d="m 2428.8743,934.03675 q 3.7761,0 7.3256,-0.75521 3.625,-0.75521 7.1744,-1.88803 v 17.14327 q -3.7005,1.66146 -9.2135,2.71875 -5.4375,1.13282 -11.9323,1.13282 -7.5521,0 -13.5938,-2.41667 -5.9662,-2.4922 -9.4401,-8.53388 -3.3985,-6.1172 -3.3985,-16.99222 V 883.73976 H 2384.77 v -9.74221 l 12.6876,-7.70314 6.6458,-17.82296 h 14.7266 v 17.974 h 23.6381 v 17.29431 H 2418.83 v 40.70582 q 0,4.83334 2.7188,7.25002 2.7943,2.34115 7.3255,2.34115 z m 54.6017,-67.5913 v 84.43248 h -23.0339 v -84.43248 z m -11.4792,-33.0782 q 5.1354,0 8.836,2.41668 3.7005,2.34115 3.7005,8.83595 0,6.41929 -3.7005,8.91148 -3.7006,2.41667 -8.836,2.41667 -5.2109,0 -8.9115,-2.41667 -3.625,-2.49219 -3.625,-8.91148 0,-6.4948 3.625,-8.83595 3.7006,-2.41668 8.9115,-2.41668 z m 82.771,31.49226 q 1.737,0 4.0026,0.22656 2.3411,0.15105 3.776,0.45313 l -1.7369,21.59901 q -1.1329,-0.37761 -3.2475,-0.52865 -2.039,-0.22656 -3.5494,-0.22656 -4.4558,0 -8.685,1.13281 -4.1536,1.13282 -7.4765,3.70053 -3.323,2.49219 -5.2865,6.64585 -1.888,4.07813 -1.888,10.04429 v 42.97145 h -23.0339 v -84.43248 h 17.4453 l 3.3985,14.19795 h 1.1328 q 2.4922,-4.3047 6.1927,-7.85418 3.7761,-3.62501 8.5339,-5.7396 4.8333,-2.19011 10.4219,-2.19011 z m 99.8388,43.65114 q 0,10.57294 -2.8698,18.72921 -2.7943,8.15626 -8.2318,13.82034 -5.362,5.58855 -12.9896,8.45835 -7.5521,2.8698 -17.0677,2.8698 -8.9115,0 -16.3881,-2.8698 -7.401,-2.8698 -12.9141,-8.45835 -5.4375,-5.66408 -8.4583,-13.82034 -2.9453,-8.15627 -2.9453,-18.72921 0,-14.04691 4.9843,-23.78912 4.9844,-9.74221 14.198,-14.80211 9.2136,-5.05991 21.9766,-5.05991 11.8568,0 20.9948,5.05991 9.2136,5.0599 14.4246,14.80211 5.2864,9.74221 5.2864,23.78912 z m -58.3777,0 q 0,8.30731 1.8125,13.97138 1.8125,5.66408 5.6641,8.53388 3.8515,2.86979 10.0443,2.86979 6.1172,0 9.8932,-2.86979 3.8516,-2.8698 5.5886,-8.53388 1.8125,-5.66407 1.8125,-13.97138 0,-8.38283 -1.8125,-13.89587 -1.737,-5.58855 -5.5886,-8.38283 -3.8516,-2.79427 -10.0443,-2.79427 -9.138,0 -13.2917,6.26824 -4.0781,6.26824 -4.0781,18.80473 z m 100.4429,42.36728 h -23.0339 V 833.36725 h 23.0339 z"
         id="path3" />
    </g>
    <path
       style="font-weight:bold;font-size:93.3333px;line-height:1.3;font-family:'Open Sans';-inkscape-font-specification:'Open Sans Bold';font-variant-ligatures:discretionary-ligatures no-contextual;text-align:end;text-anchor:end;fill:#d9d9d9;stroke-width:203.206;stroke-linecap:round;stroke-dashoffset:8.3318;paint-order:stroke fill markers"
       d="m 1963.7736,1086.2143 q 0,5.9245 -2.8711,10.2995 -2.8711,4.375 -8.3855,6.7448 -5.4687,2.3698 -13.3072,2.3698 -3.4636,0 -6.7904,-0.4558 -3.2812,-0.4557 -6.3346,-1.3216 -3.0078,-0.9114 -5.7422,-2.233 v -13.125 q 4.7396,2.0963 9.8437,3.7825 5.1042,1.6862 10.1172,1.6862 3.4636,0 5.5599,-0.9114 2.1419,-0.9115 3.099,-2.5066 0.957,-1.595 0.957,-3.6458 0,-2.5065 -1.6862,-4.2838 -1.6862,-1.7774 -4.6484,-3.3269 -2.9167,-1.5494 -6.6081,-3.3268 -2.3242,-1.0937 -5.0586,-2.6432 -2.7344,-1.5951 -5.1953,-3.8737 -2.4609,-2.2787 -4.056,-5.5143 -1.5495,-3.2813 -1.5495,-7.8386 0,-5.97 2.7344,-10.2083 2.7344,-4.2383 7.793,-6.4713 5.1041,-2.2787 12.0312,-2.2787 5.1953,0 9.8893,1.2305 4.7396,1.1849 9.8893,3.4635 l -4.5572,10.9831 q -4.6029,-1.8685 -8.2487,-2.8711 -3.6459,-1.0482 -7.4284,-1.0482 -2.6433,0 -4.5117,0.8659 -1.8685,0.8203 -2.8256,2.3698 -0.957,1.5039 -0.957,3.5091 0,2.3698 1.3672,4.0104 1.4128,1.5951 4.1927,3.099 2.8255,1.5039 7.0182,3.5091 5.1042,2.4154 8.7045,5.0586 3.6458,2.5976 5.6054,6.1523 1.9597,3.5091 1.9597,8.75 z m 39.3294,-33.4049 q 8.6132,0 13.8997,6.6992 5.332,6.6992 5.332,19.6419 0,8.6589 -2.5065,14.5834 -2.5065,5.8789 -6.9271,8.8867 -4.4205,3.0078 -10.1627,3.0078 -3.6914,0 -6.3346,-0.9115 -2.6433,-0.957 -4.5118,-2.4153 -1.8685,-1.504 -3.2356,-3.1901 h -0.7292 q 0.3646,1.8229 0.5469,3.7369 0.1823,1.9141 0.1823,3.737 v 20.5534 h -13.8998 v -73.3724 h 11.3021 l 1.9596,6.6081 h 0.6381 q 1.3671,-2.0508 3.3268,-3.7826 1.9596,-1.7317 4.694,-2.7343 2.7799,-1.0482 6.4258,-1.0482 z m -4.4662,11.1198 q -3.6458,0 -5.7877,1.5039 -2.142,1.5039 -3.1446,4.5117 -0.957,3.0078 -1.0481,7.6107 v 1.5039 q 0,4.9218 0.9114,8.3398 0.9571,3.418 3.1445,5.1953 2.2331,1.7774 6.1068,1.7774 3.1901,0 5.2409,-1.7774 2.0508,-1.7773 3.0534,-5.1953 1.0482,-3.4635 1.0482,-8.431 0,-7.4739 -2.3243,-11.2565 -2.3242,-3.7825 -7.2005,-3.7825 z m 81.4844,15.2213 q 0,6.3802 -1.7318,11.3021 -1.6862,4.9219 -4.9675,8.3398 -3.2356,3.3724 -7.8385,5.1042 -4.5573,1.7318 -10.2995,1.7318 -5.3776,0 -9.8893,-1.7318 -4.4661,-1.7318 -7.793,-5.1042 -3.2812,-3.4179 -5.1041,-8.3398 -1.7774,-4.9219 -1.7774,-11.3021 0,-8.4765 3.0079,-14.3554 3.0078,-5.8789 8.5677,-8.9323 5.5598,-3.0534 13.2617,-3.0534 7.1549,0 12.6692,3.0534 5.5599,3.0534 8.7045,8.9323 3.1901,5.8789 3.1901,14.3554 z m -35.2279,0 q 0,5.013 1.0938,8.431 1.0937,3.418 3.4179,5.1497 2.3242,1.7318 6.0612,1.7318 3.6914,0 5.9701,-1.7318 2.3242,-1.7317 3.3724,-5.1497 1.0937,-3.418 1.0937,-8.431 0,-5.0586 -1.0937,-8.3854 -1.0482,-3.3724 -3.3724,-5.0586 -2.3242,-1.6862 -6.0612,-1.6862 -5.5143,0 -8.0209,3.7826 -2.4609,3.7825 -2.4609,11.3476 z m 75.1497,-26.3411 q 1.0482,0 2.4154,0.1367 1.4127,0.091 2.2786,0.2734 l -1.0481,13.0339 q -0.6836,-0.2279 -1.9597,-0.319 -1.2304,-0.1367 -2.1419,-0.1367 -2.6888,0 -5.2409,0.6836 -2.5065,0.6835 -4.5117,2.233 -2.0052,1.5039 -3.1901,4.0104 -1.1393,2.461 -1.1393,6.0612 v 25.931 h -13.8998 v -50.9505 h 10.5274 l 2.0508,8.5677 h 0.6835 q 1.504,-2.5976 3.737,-4.7396 2.2787,-2.1875 5.1498,-3.4635 2.9166,-1.3216 6.289,-1.3216 z m 35.4102,41.7448 q 2.2786,0 4.4205,-0.4558 2.1875,-0.4557 4.3295,-1.1393 v 10.3451 q -2.2331,1.0026 -5.5599,1.6406 -3.2813,0.6836 -7.2005,0.6836 -4.5573,0 -8.2032,-1.4584 -3.6002,-1.5039 -5.6966,-5.1497 -2.0508,-3.6914 -2.0508,-10.2539 v -24.5638 h -6.6536 v -5.8789 l 7.6562,-4.6484 4.0105,-10.7552 h 8.8867 v 10.8463 h 14.2643 v 10.4362 h -14.2643 v 24.5638 q 0,2.9167 1.6406,4.375 1.6862,1.4128 4.4206,1.4128 z m 38.7825,-9.1602 v -11.3932 h 24.4727 v 11.3932 z m 98.2552,19.3229 h -38.3724 v -66.6276 h 38.3724 v 11.5756 h -24.2448 v 14.6289 h 22.5586 v 11.5755 h -22.5586 v 17.181 h 24.2448 z m 24.9284,0 -19.4141,-50.9505 h 14.5378 l 9.8437,29.03 q 0.8203,2.552 1.276,5.3776 0.5013,2.8255 0.6836,5.0585 h 0.3646 q 0.1367,-2.4153 0.638,-5.1497 0.5469,-2.7344 1.4128,-5.2864 l 9.7982,-29.03 h 14.5377 l -19.414,50.9505 z m 61.9791,-51.9075 q 7.0638,0 12.168,2.7344 5.1041,2.6888 7.8841,7.8385 2.7799,5.1497 2.7799,12.5781 v 6.7448 h -32.858 q 0.2278,5.8789 3.5091,9.2513 3.3268,3.3268 9.2057,3.3268 4.8763,0 8.9323,-1.0026 4.056,-1.0026 8.3398,-3.0078 v 10.7552 q -3.7825,1.8685 -7.9296,2.7344 -4.1016,0.8659 -9.9805,0.8659 -7.6563,0 -13.5807,-2.8255 -5.8789,-2.8256 -9.2513,-8.6133 -3.3269,-5.7878 -3.3269,-14.5833 0,-8.9323 3.0079,-14.8568 3.0533,-5.9701 8.4765,-8.9323 5.4232,-3.0078 12.6237,-3.0078 z m 0.091,9.8893 q -4.056,0 -6.7448,2.5977 -2.6433,2.5976 -3.0534,8.1575 h 19.5052 q -0.046,-3.0989 -1.1393,-5.5143 -1.0482,-2.4154 -3.1901,-3.8281 -2.0964,-1.4128 -5.3776,-1.4128 z m 62.9817,-9.8893 q 8.1576,0 13.125,4.4661 4.9675,4.4206 4.9675,14.2188 v 33.2226 h -13.8998 v -29.7591 q 0,-5.4687 -2.0052,-8.2487 -1.9596,-2.7799 -6.1979,-2.7799 -6.3802,0 -8.7044,4.3294 -2.3242,4.3294 -2.3242,12.487 v 23.9713 h -13.8998 v -50.9505 h 10.6185 l 1.8685,6.5169 h 0.7747 q 1.6407,-2.6432 4.056,-4.2838 2.461,-1.6406 5.4232,-2.4154 3.0078,-0.7747 6.1979,-0.7747 z m 53.8672,41.7448 q 2.2786,0 4.4206,-0.4558 2.1875,-0.4557 4.3294,-1.1393 v 10.3451 q -2.2331,1.0026 -5.5599,1.6406 -3.2813,0.6836 -7.2005,0.6836 -4.5573,0 -8.2032,-1.4584 -3.6002,-1.5039 -5.6966,-5.1497 -2.0507,-3.6914 -2.0507,-10.2539 v -24.5638 h -6.6537 v -5.8789 l 7.6563,-4.6484 4.0104,-10.7552 h 8.8867 v 10.8463 h 14.2643 v 10.4362 h -14.2643 v 24.5638 q 0,2.9167 1.6406,4.375 1.6862,1.4128 4.4206,1.4128 z m 47.2135,-30.3516 h -12.0313 v 40.5143 h -13.8997 v -40.5143 h -7.6562 v -6.6992 l 7.6562,-3.737 v -3.737 q 0,-6.5169 2.1875,-10.1171 2.2331,-3.6459 6.2435,-5.1042 4.056,-1.5039 9.5703,-1.5039 4.056,0 7.3828,0.6836 3.3268,0.638 5.4232,1.4583 l -3.5547,10.2083 q -1.5951,-0.5013 -3.4635,-0.9114 -1.8685,-0.4102 -4.2839,-0.4102 -2.9167,0 -4.2839,1.7774 -1.3216,1.7317 -1.3216,4.4661 v 3.1901 h 12.0313 z m 54.2773,14.9479 q 0,6.3802 -1.7318,11.3021 -1.6862,4.9219 -4.9674,8.3398 -3.2357,3.3724 -7.8386,5.1042 -4.5573,1.7318 -10.2995,1.7318 -5.3776,0 -9.8893,-1.7318 -4.4661,-1.7318 -7.7929,-5.1042 -3.2813,-3.4179 -5.1042,-8.3398 -1.7773,-4.9219 -1.7773,-11.3021 0,-8.4765 3.0078,-14.3554 3.0078,-5.8789 8.5677,-8.9323 5.5599,-3.0534 13.2617,-3.0534 7.1549,0 12.6693,3.0534 5.5598,3.0534 8.7044,8.9323 3.1901,5.8789 3.1901,14.3554 z m -35.2279,0 q 0,5.013 1.0938,8.431 1.0937,3.418 3.4179,5.1497 2.3243,1.7318 6.0612,1.7318 3.6914,0 5.9701,-1.7318 2.3242,-1.7317 3.3724,-5.1497 1.0937,-3.418 1.0937,-8.431 0,-5.0586 -1.0937,-8.3854 -1.0482,-3.3724 -3.3724,-5.0586 -2.3242,-1.6862 -6.0612,-1.6862 -5.5143,0 -8.0208,3.7826 -2.461,3.7825 -2.461,11.3476 z m 68.1771,15.4037 q 2.2786,0 4.4206,-0.4558 2.1875,-0.4557 4.3294,-1.1393 v 10.3451 q -2.2331,1.0026 -5.5599,1.6406 -3.2813,0.6836 -7.2005,0.6836 -4.5573,0 -8.2032,-1.4584 -3.6002,-1.5039 -5.6966,-5.1497 -2.0507,-3.6914 -2.0507,-10.2539 v -24.5638 h -6.6537 v -5.8789 l 7.6563,-4.6484 4.0104,-10.7552 h 8.8867 v 10.8463 h 14.2643 v 10.4362 h -14.2643 v 24.5638 q 0,2.9167 1.6406,4.375 1.6862,1.4128 4.4206,1.4128 z m 65.3516,-15.4037 q 0,6.3802 -1.7318,11.3021 -1.6862,4.9219 -4.9675,8.3398 -3.2356,3.3724 -7.8385,5.1042 -4.5573,1.7318 -10.2995,1.7318 -5.3776,0 -9.8893,-1.7318 -4.4661,-1.7318 -7.793,-5.1042 -3.2812,-3.4179 -5.1041,-8.3398 -1.7774,-4.9219 -1.7774,-11.3021 0,-8.4765 3.0078,-14.3554 3.0079,-5.8789 8.5678,-8.9323 5.5598,-3.0534 13.2617,-3.0534 7.1549,0 12.6692,3.0534 5.5599,3.0534 8.7045,8.9323 3.1901,5.8789 3.1901,14.3554 z m -35.2279,0 q 0,5.013 1.0938,8.431 1.0937,3.418 3.4179,5.1497 2.3242,1.7318 6.0612,1.7318 3.6914,0 5.9701,-1.7318 2.3242,-1.7317 3.3724,-5.1497 1.0937,-3.418 1.0937,-8.431 0,-5.0586 -1.0937,-8.3854 -1.0482,-3.3724 -3.3724,-5.0586 -2.3242,-1.6862 -6.0612,-1.6862 -5.5143,0 -8.0209,3.7826 -2.4609,3.7825 -2.4609,11.3476 z"
       id="text80"
       aria-label="  Sport - Eventfoto&#10;" />
  </g>
</svg>
